<svg id="eqxoz729VXj1" xmlns="http://www.w3.org/2000/svg" xmlns:xlink="http://www.w3.org/1999/xlink" viewBox="0 0 300 300" shape-rendering="geometricPrecision" text-rendering="geometricPrecision" project-id="7c227b62a8aa46708d616d5c4242c39a" export-id="d0a2cb1224af4cc7b69b5f0736ae649c" cached="false"><defs><linearGradient id="eqxoz729VXj2-fill" x1="0.406682" y1="0.3076" x2="0.465632" y2="0.926577" spreadMethod="pad" gradientUnits="objectBoundingBox" gradientTransform="translate(0 0)"><stop id="eqxoz729VXj2-fill-0" offset="0%" stop-color="#48cae4"/><stop id="eqxoz729VXj2-fill-1" offset="100%" stop-color="#023e8a"/></linearGradient><radialGradient id="eqxoz729VXj3-fill" cx="0" cy="0" r="0.708897" spreadMethod="pad" gradientUnits="objectBoundingBox" gradientTransform="translate(0.39958 0.561266)"><stop id="eqxoz729VXj3-fill-0" offset="0%" stop-color="#0077b6"/><stop id="eqxoz729VXj3-fill-1" offset="100%" stop-color="#023e8a"/></radialGradient></defs><path d="M0,300C40,190,24.49448,6.373037,50,0.758696s24.355562,104.649214,44.355562,104.649214s9.747865-25.266647,35.06765-24.599695s55.754055,130.566714,170.576788,179.191785v40c0,0-200,0-300,0Z" transform="translate(0-.758696)" fill="url(#eqxoz729VXj2-fill)" stroke-width="20"/><path d="M200,0c-9.54524,64.022102,49.115523,102.433758,100,100v-100.128772L200,0Z" fill="url(#eqxoz729VXj3-fill)" stroke-width="0.6"/><g transform="translate(-9.213369-18.426739)"><ellipse rx="30" ry="15.005007" transform="matrix(.689772-.219176 0.30283 0.953042 238.767225 47.805963)" fill="#caf0f8" stroke-width="0"/><ellipse rx="12.023664" ry="9.084919" transform="translate(232.610419 51.861027)" fill="#03045e" stroke-width="0"/></g><path d="M245.89618,84.9935c14.92449,0,24.7664-13.12565,32.509-23.44912" transform="matrix(.891364-.005908 0.006458 0.974369 26.907717 4.165144)" fill="none" stroke="#00b4d8" stroke-width="10" stroke-linecap="round"/></svg>
