<svg id="eN3SJHORMl11" xmlns="http://www.w3.org/2000/svg" xmlns:xlink="http://www.w3.org/1999/xlink" viewBox="0 0 300 300" shape-rendering="geometricPrecision" text-rendering="geometricPrecision" project-id="7c227b62a8aa46708d616d5c4242c39a" export-id="a77c5552296c4192be2a08303f69d9cb" cached="false"><defs><linearGradient id="eN3SJHORMl164-fill" x1="0.466343" y1="0.906124" x2="0.461251" y2="0.619488" spreadMethod="pad" gradientUnits="objectBoundingBox" gradientTransform="translate(0 0)"><stop id="eN3SJHORMl164-fill-0" offset="0%" stop-color="#0cf"/><stop id="eN3SJHORMl164-fill-1" offset="100%" stop-color="#fff"/></linearGradient></defs><rect width="199.993295" height="30.713256" rx="7" ry="7" transform="translate(50.418482 16.70695)" fill="#6c00ff" stroke-width="0"/><rect width="300" height="70" rx="9" ry="9" transform="translate(0 230)" fill="#0cf" stroke-width="0"/><g transform="translate(9.932279-19.732504)"><g transform="translate(-3.09095 17.82169)"><g transform="translate(-.000002 1.708935)"><rect width="48.856893" height="30.291273" rx="6" ry="6" transform="translate(43.090953 50.469374)" fill="#0cf" stroke-width="0"/><rect width="48.856893" height="30.291273" rx="6" ry="6" transform="translate(93.902864 50.469374)" fill="#0cf" stroke-width="0"/></g><g transform="translate(-.000003 32.802681)"><rect width="48.856893" height="30.291273" rx="6" ry="6" transform="translate(43.090953 50.469374)" fill="#0cf" stroke-width="0"/><rect width="48.856893" height="30.291273" rx="6" ry="6" transform="translate(93.902864 50.469374)" fill="#0cf" stroke-width="0"/></g></g><g transform="translate(97.375686 17.420451)"><g transform="translate(-.000002 1.708935)"><rect width="48.856893" height="30.291273" rx="6" ry="6" transform="translate(43.090953 50.469374)" fill="#0cf" stroke-width="0"/><rect width="48.856893" height="30.291273" rx="6" ry="6" transform="translate(93.902864 50.469374)" fill="#0cf" stroke-width="0"/></g><g transform="translate(-.000003 32.802681)"><rect width="48.856893" height="30.291273" rx="6" ry="6" transform="translate(43.090953 50.469374)" fill="#0cf" stroke-width="0"/><rect width="48.856893" height="30.291273" rx="6" ry="6" transform="translate(93.902864 50.469374)" fill="#0cf" stroke-width="0"/></g></g></g><g transform="translate(9.932279-19.732504)"><g transform="translate(-3.09095 17.82169)"><g transform="translate(-.000002 1.708935)"><rect width="48.856893" height="30.291273" rx="6" ry="6" transform="translate(43.090953 50.469374)" fill="#0cf" stroke-width="0"/><rect width="48.856893" height="30.291273" rx="6" ry="6" transform="translate(93.902864 50.469374)" fill="#0cf" stroke-width="0"/></g><g transform="translate(-.000003 32.802681)"><rect width="48.856893" height="30.291273" rx="6" ry="6" transform="translate(43.090953 50.469374)" fill="#0cf" stroke-width="0"/><rect width="48.856893" height="30.291273" rx="6" ry="6" transform="translate(93.902864 50.469374)" fill="#0cf" stroke-width="0"/></g></g><g transform="translate(97.375686 17.420451)"><g transform="translate(-.000002 1.708935)"><rect width="48.856893" height="30.291273" rx="6" ry="6" transform="translate(43.090953 50.469374)" fill="#0cf" stroke-width="0"/><rect width="48.856893" height="30.291273" rx="6" ry="6" transform="translate(93.902864 50.469374)" fill="#0cf" stroke-width="0"/></g><g transform="translate(-.000003 32.802681)"><rect width="48.856893" height="30.291273" rx="6" ry="6" transform="translate(43.090953 50.469374)" fill="#0cf" stroke-width="0"/><rect width="48.856893" height="30.291273" rx="6" ry="6" transform="translate(93.902864 50.469374)" fill="#0cf" stroke-width="0"/></g></g></g><g transform="translate(10.331198 41.652512)"><g transform="translate(-3.09095 17.82169)"><g transform="translate(-.000002 1.708935)"><rect width="48.856893" height="30.291273" rx="6" ry="6" transform="translate(43.090953 50.469374)" fill="#0cf" stroke-width="0"/><rect width="48.856893" height="30.291273" rx="6" ry="6" transform="translate(93.902864 50.469374)" fill="#0cf" stroke-width="0"/></g><g transform="translate(-.000003 32.802681)"><rect width="48.856893" height="30.291273" rx="6" ry="6" transform="translate(43.090953 50.469374)" fill="#0cf" stroke-width="0"/><rect width="48.856893" height="30.291273" rx="6" ry="6" transform="translate(93.902864 50.469374)" fill="#0cf" stroke-width="0"/></g></g><g transform="translate(97.375686 17.420451)"><g transform="translate(-.000002 1.708935)"><rect width="48.856893" height="30.291273" rx="6" ry="6" transform="translate(43.090953 50.469374)" fill="#0cf" stroke-width="0"/><rect width="48.856893" height="30.291273" rx="6" ry="6" transform="translate(93.902864 50.469374)" fill="#0cf" stroke-width="0"/></g><g transform="translate(-.000003 32.802681)"><rect width="48.856893" height="30.291273" rx="6" ry="6" transform="translate(43.090953 50.469374)" fill="#0cf" stroke-width="0"/><rect width="48.856893" height="30.291273" rx="6" ry="6" transform="translate(93.902864 50.469374)" fill="#0cf" stroke-width="0"/></g></g></g><g transform="translate(9.533365 103.438767)"><g transform="translate(-3.09095 17.82169)"><g transform="translate(-.000002 1.708935)"><rect width="48.856893" height="30.291273" rx="6" ry="6" transform="translate(43.090953 50.469374)" fill="#0cf" stroke-width="0"/><rect width="48.856893" height="30.291273" rx="6" ry="6" transform="translate(93.902864 50.469374)" fill="#0cf" stroke-width="0"/></g><g transform="translate(-.000003 32.802681)"><rect width="48.856893" height="30.291273" rx="6" ry="6" transform="translate(43.090953 50.469374)" fill="#0cf" stroke-width="0"/><rect width="48.856893" height="30.291273" rx="6" ry="6" transform="translate(93.902864 50.469374)" fill="#0cf" stroke-width="0"/></g></g><g transform="translate(97.375686 17.420451)"><g transform="translate(-.000002 1.708935)"><rect width="48.856893" height="30.291273" rx="6" ry="6" transform="translate(43.090953 50.469374)" fill="#0cf" stroke-width="0"/><rect width="48.856893" height="30.291273" rx="6" ry="6" transform="translate(93.902864 50.469374)" fill="#0cf" stroke-width="0"/></g><g transform="translate(-.000003 32.802681)"><rect width="48.856893" height="30.291273" rx="6" ry="6" transform="translate(43.090953 50.469374)" fill="#0cf" stroke-width="0"/><rect width="48.856893" height="30.291273" rx="6" ry="6" transform="translate(93.902864 50.469374)" fill="#0cf" stroke-width="0"/></g></g></g><path d="M-86.382562,475.725604C108.457114,425.801196,38.975406,207.086897,74.293242,207.933567s17.275353,69.27716,39.962398,77.85815s27.579564-.18188,45.391495-.315496c56.130883-.42109,26.192341,84.538909,268.069793,171.081837c0,0-364.099489,19.167546-514.09949,19.167546Z" transform="matrix(.53422 0.004895-.009103 0.993437 70.196945-177.151318)" fill="url(#eN3SJHORMl164-fill)" stroke-width="20" stroke-linejoin="round"/></svg>
