<svg id="ev8KkGqJP5L1" xmlns="http://www.w3.org/2000/svg" xmlns:xlink="http://www.w3.org/1999/xlink" viewBox="0 0 300 300" shape-rendering="geometricPrecision" text-rendering="geometricPrecision" project-id="be4b901a309d4c6e9daa4886a828cb0e" export-id="1a43de0c2657478fb773fe720276621d" cached="false"><defs><linearGradient id="ev8KkGqJP5L4-fill" x1="0.393071" y1="0.895079" x2="0.373071" y2="0.145645" spreadMethod="pad" gradientUnits="objectBoundingBox" gradientTransform="translate(0 0)"><stop id="ev8KkGqJP5L4-fill-0" offset="0%" stop-color="#fff"/><stop id="ev8KkGqJP5L4-fill-1" offset="100%" stop-color="#0cf"/></linearGradient></defs><rect width="301.190049" height="300" rx="0" ry="0" transform="translate(-1.190048 0)" fill="#fff" stroke-width="0"/><g transform="matrix(1.007843 0 0 1.030087 6.892893-28.142454)"><path d="M-6.598917,520.917904c85.686008-58.332479,38.817784-341.897071,74.13562-341.050401s24.031892,97.343224,46.718937,105.924214s16.330895-13.713022,34.142826-13.846638c56.130883-.42109,34.248771,123.636876,279.000333,173.055946c0,0-283.997715,75.916879-433.997716,75.916879Z" transform="matrix(.669412 0.006134-.007492 0.817629 0.300001-110.431558)" fill="url(#ev8KkGqJP5L4-fill)" stroke-width="20" stroke-linejoin="round"/><g transform="matrix(.030141 0 0-.057515-.667012 393.669007)"><path d="M7700,2720c0-137-2-250-5-250-2,0-21,11-41,25-83,56-229,61-323,10-196-107-235-408-74-568c108-109,286-127,399-41l44,34v-35-35h115h115v555v555h-115-115v-250Zm-98-380c84-24,128-128,90-214-29-65-70-88-150-84-57,4-66,7-99,40-32,33-37,44-40,95-5,74,18,119,77,150c48,26,68,28,122,13Z" transform="translate(8.86169 0)" fill="#0cf"/><path d="M580,2395v-535h120h120v215v215h170h170v-215-215h125h125l-2,533-3,532-122,3-123,3v-216-215h-170-170v215v215h-120-120v-535Z" transform="translate(-.503477 0)" fill="#0cf"/><path d="M4650,2395v-535h125h125l2,205l3,205l158-205l158-205h154h155l-180,217c-99,119-180,220-180,223s17,12,37,19c55,20,126,97,152,164c59,160,1,331-138,401-72,37-146,46-368,46h-203v-535Zm400,322c45-16,74-66,74-128c0-85-44-123-158-135l-66-7v142v141l58-1c31,0,73-5,92-12Z" transform="translate(-.503477 0)" fill="#0cf"/><path d="M3850,2646v-124l-52-4c-29-2-69,2-88,9-48,17-133,16-175-1-18-8-54-33-79-57l-46-42v47v46h-110-110v-330-330h110h110v173c0,202,12,256,64,288c38,23,125,25,166,4l30-15l44,87l45,88v-67l1-68h44h44l4-169c3-164,4-170,34-227c42-83,90-109,199-109c59,0,91,6,121,20l42,20-27,87-26,87-40-6c-63-8-69,6-73,164l-4,133h71h71v85v84l-67,3-68,3-3,123-3,122h-114-115v-124Z" transform="translate(-.503477 0)" fill="#0cf"/><path d="M1743,2522c-100-36-171-101-216-199-31-68-31-198,0-266c32-70,113-150,183-181c105-47,253-45,355,6c45,23,135,106,135,125c0,7-35,30-78,52l-77,39-32-29c-97-86-273-40-273,71c0,19,9,20,241,20h242l-6,72c-11,134-76,227-194,280-68,31-208,36-280,10Zm190-143c29-15,56-50,57-71c0-16-12-18-120-18-128,0-135,3-110,50c23,44,121,65,173,39Z" transform="translate(-.503477 0)" fill="#0cf"/><path d="M2489,2526c-155-55-242-214-217-396c32-240,312-373,494-234l44,34v-35-35h115h115v330v330h-115-115v-25c0-31-1-31-46,0-20,14-53,29-73,35-50,14-159,12-202-4Zm223-186c84-24,128-128,90-214-29-65-70-88-150-84-57,4-66,7-99,40-32,33-37,44-40,95-5,74,18,119,77,150c48,26,68,28,122,13Z" transform="translate(-.503477 0)" fill="#0cf"/><path d="M5749,2517c-73-31-110-58-154-112-70-85-94-209-61-318c31-103,135-200,251-233c75-21,187-14,270,17c56,21,165,110,165,135c0,6-35,27-78,48l-79,38-42-30c-101-73-261-31-261,69v29h241h242l-7,66c-10,96-38,162-93,216-70,69-128,91-243,95-82,3-103,0-151-20Zm227-161c60-60,52-66-92-66-125,0-125,0-119,23c4,12,20,34,36,50c25,23,38,27,85,27c50,0,59-3,90-34Z" transform="translate(8.86169 0)" fill="#0cf"/><path d="M6509,2526c-155-55-242-214-217-396c32-240,312-373,494-234l44,34v-35-35h115h115v330v330h-115-115v-25c0-31-1-31-46,0-20,14-53,29-73,35-50,14-159,12-202-4Zm223-186c84-24,128-128,90-214-29-65-70-88-150-84-57,4-66,7-99,40-32,33-37,44-40,95-5,74,18,119,77,150c48,26,68,28,122,13Z" transform="translate(8.86169 0)" fill="#0cf"/><path d="M8270,2524c-143-52-240-182-242-321-1-119,38-206,124-276c81-66,129-82,248-81c136,1,202,24,277,100c29,29,53,57,53,61c0,5-35,26-79,47l-79,39-43-31c-104-73-238-38-264,71l-7,27h240c170,0,241,3,244,11c2,7,1,42-3,79-13,120-82,215-187,262-65,28-219,35-282,12Zm209-161c16-16,32-38,36-50c6-23,6-23-119-23-144,0-152,6-92,66c31,31,40,34,90,34c47,0,60-4,85-27Z" transform="translate(8.86169 0)" fill="#0cf"/><path d="M9172,2514c-28-14-63-39-77-56l-25-30v46v46h-115-115v-330-330h115h115v185c0,203,7,235,55,273c34,27,124,30,169,7c16-9,30-14,31-13c2,2,23,44,48,95c50,99,50,101-12,122-58,19-132,14-189-15Z" transform="translate(8.86169 0)" fill="#0cf"/></g><g transform="matrix(4.101118 0 0 3.796991 144.652215 31.289999)"><g><g><path d="M12.159,2.162c-.714,0-1.293.579-1.293,1.293v1.781h2.254v-.103c0-.453.367-.819.819-.819h14.765c.452,0,.819.366.819.819v10.662c0,.283-.229.514-.513.514v2.254h1.372c.714,0,1.294-.579,1.294-1.294v-13.814c0-.714-.579-1.293-1.294-1.293h-18.223Z" fill="#0cf"/><path d="M6.56,9.541h2.153c0-.452.366-.818.818-.818h14.438c.633,0,1.146.513,1.146,1.146v10.335c0,.283-.229.513-.512.513h-.205v2.153h1.578c.713,0,1.293-.579,1.293-1.294v-13.928c0-.652-.531-1.182-1.184-1.182h-18.232c-.714,0-1.293.579-1.293,1.293v1.782Z" transform="translate(.13527 0)" fill="#0cf"/><path d="M22.963,16.819c0-1.474-1.193-2.665-2.666-2.665h-7.894v.019l-.794-1.74c-.433-.949-1.381-1.558-2.424-1.558h-6.52C1.193,10.875,0,12.067,0,13.54v.609v4.413v9.374c0,.825.668,1.496,1.493,1.5l20.24.079c.73.003,1.396-.422,1.701-1.084l1.483-3.215c.112-.244.093-.528-.052-.756-.146-.226-.396-.361-.664-.361h-1.238v-7.28ZM15.274,22.87h-2.153v2.255h-2.254v-2.255h-2.154v-2.153h2.153v-2.123c0-.018.014-.03.032-.03h2.186.037v2.153h2.153v2.153Z" transform="translate(.13527 0)" fill="#0cf"/></g></g></g></g></svg>
