<svg id="e6SYd5J3vkD1" xmlns="http://www.w3.org/2000/svg" xmlns:xlink="http://www.w3.org/1999/xlink" viewBox="0 0 300 300" shape-rendering="geometricPrecision" text-rendering="geometricPrecision" project-id="7c227b62a8aa46708d616d5c4242c39a" export-id="3b4c50ca408140b5802e3496b8b136e0" cached="false"><defs><linearGradient id="e6SYd5J3vkD6-fill" x1="1.001073" y1="1.108547" x2="0.24932" y2="0.193543" spreadMethod="pad" gradientUnits="objectBoundingBox" gradientTransform="translate(0 0)"><stop id="e6SYd5J3vkD6-fill-0" offset="0%" stop-color="#0cf"/><stop id="e6SYd5J3vkD6-fill-1" offset="100%" stop-color="#fff"/></linearGradient><linearGradient id="e6SYd5J3vkD7-fill" x1="0.866633" y1="0.5" x2="0.97399" y2="0.066477" spreadMethod="pad" gradientUnits="objectBoundingBox" gradientTransform="translate(0 0)"><stop id="e6SYd5J3vkD7-fill-0" offset="0%" stop-color="#f30"/><stop id="e6SYd5J3vkD7-fill-1" offset="100%" stop-color="#0cf"/></linearGradient></defs><g transform="translate(55.864916-2.1)"><path d="M162.4,46h-101.8v-16.4h-38.1v224.4h178.1v-224.4h-38.1v16.4h-.1ZM67.2,196.1c-7,0-12.7-5.7-12.7-12.7s5.7-12.7,12.7-12.7s12.7,5.7,12.7,12.7-5.7,12.7-12.7,12.7Zm0-42.5c-7,0-12.7-5.7-12.7-12.7s5.7-12.7,12.7-12.7s12.7,5.7,12.7,12.7c0,7.1-5.7,12.7-12.7,12.7Zm0-42.6c-7,0-12.7-5.7-12.7-12.7s5.7-12.7,12.7-12.7s12.7,5.7,12.7,12.7-5.7,12.7-12.7,12.7Zm101.4,82.1h-75.7v-19.4h75.6v19.4h.1Zm0-42.5h-75.7v-19.4h75.6v19.4h.1Zm0-42.6h-75.7v-19.4h75.6v19.4h.1ZM152.7,15.6h-27.5c-.2-7.5-6.4-13.5-13.9-13.5s-13.6,6-13.9,13.5h-27.2v23h82.6v-23h-.1Zm-41.2,6.7c-3.5,0-6.4-2.9-6.4-6.4c0-.1,0-.2,0-.3.2-3.3,3-6,6.4-6c3.3,0,6.1,2.7,6.4,6c0,.1,0,.2,0,.3c0,3.7-2.9,6.4-6.4,6.4ZM216.7,51h19.3v153.9h-19.3v-153.9Zm9.8,178l9.5-19.9h-19.3l9.8,19.9Z" transform="matrix(-1.137043 0 0 1.046419 257.733553 5.772075)" fill="#bfbbc5"/></g><g transform="matrix(1.709148 0 0 1.691312-121.179705-12.837511)"><path d="M-81.469483,461.674009C105.848722,394.948292,24.077492,208.87779,74.872963,210.574852s25.076692,67.873757,47.009325,72.529015s13.931058-8.248618,53.158784-6.585852c51.990392,3.710306-.419035,61.772304,336.761633,110.061934c0,0-442.562712,86.56463-593.272188,75.09406Z" transform="matrix(.589975 0.005406-.010079 1.099954 60.037679-223.579329)" fill="#0cf" stroke-width="20" stroke-linejoin="round"/><path d="M-39.583337,463.319898C98.979307,414.20019,46.244393,209.203334,75.964195,207.863277s7.445484,73.061994,43.616647,79.984167s28.941676-6.752436,49.410181-7.747975c77.580491-.600758-8.281173,54.505208,273.10037,115.450493c0,0-331.674729,67.769936-481.67473,67.769936Z" transform="matrix(.53422 0.004895-.009103 0.993437 62.775117-190.91492)" fill="url(#e6SYd5J3vkD6-fill)" stroke-width="20" stroke-linejoin="round"/><path d="M23.217544,270.421943c-9.421271,8.984793-23.012768,20.877348-23.012768,20.877348q0,0-.204778,9.753034h26.553624c0,0,8.376645-11.21846,14.635296-19.302257s10.909774-17.64668,21.919247-35.16325s21.281988-40.60751,26.584799-72.456361s5.504468-152.274043,9.233096-156.317817l-6.713797,9.957097c-.556508.843563-7.542528,106.303351-16.279378,144.180056s-43.29407,89.487357-52.715341,98.47215Z" transform="translate(.224245-1.260714)" fill="url(#e6SYd5J3vkD7-fill)" stroke-width="0.6"/><path d="" fill="none" stroke="#3f5787" stroke-width="0.6"/></g></svg>
