<svg id="e87o9DFgweR1" xmlns="http://www.w3.org/2000/svg" xmlns:xlink="http://www.w3.org/1999/xlink" viewBox="0 0 300 300" shape-rendering="geometricPrecision" text-rendering="geometricPrecision" project-id="7c227b62a8aa46708d616d5c4242c39a" export-id="4588ca1d01e04fe79c67fda133fda1f0" cached="false"><defs><linearGradient id="e87o9DFgweR4-fill" x1="1.001073" y1="1.108547" x2="0.24932" y2="0.193543" spreadMethod="pad" gradientUnits="objectBoundingBox" gradientTransform="translate(0 0)"><stop id="e87o9DFgweR4-fill-0" offset="0%" stop-color="#0cf"/><stop id="e87o9DFgweR4-fill-1" offset="100%" stop-color="#fff"/></linearGradient><linearGradient id="e87o9DFgweR5-fill" x1="0.866633" y1="0.5" x2="0.97399" y2="0.066477" spreadMethod="pad" gradientUnits="objectBoundingBox" gradientTransform="translate(0 0)"><stop id="e87o9DFgweR5-fill-0" offset="0%" stop-color="#f30"/><stop id="e87o9DFgweR5-fill-1" offset="100%" stop-color="#0cf"/></linearGradient></defs><g transform="matrix(1.709148 0 0 1.691312-109.933982 8.647344)"><path d="M-81.469483,461.674009C105.848722,394.948292,24.077492,208.87779,74.872963,210.574852s25.076692,67.873757,47.009325,72.529015s13.931058-8.248618,53.158784-6.585852c51.990392,3.710306-.419035,61.772304,336.761633,110.061934c0,0-442.562712,86.56463-593.272188,75.09406Z" transform="matrix(.589975 0.005406-.010079 1.099954 60.037679-223.579329)" fill="#0cf" stroke-width="20" stroke-linejoin="round"/><path d="M-39.583337,463.319898C98.979307,414.20019,46.244393,209.203334,75.964195,207.863277s7.445484,73.061994,43.616647,79.984167s28.941676-6.752436,49.410181-7.747975c77.580491-.600758-8.281173,54.505208,273.10037,115.450493c0,0-331.674729,67.769936-481.67473,67.769936Z" transform="matrix(.53422 0.004895-.009103 0.993437 62.775117-190.91492)" fill="url(#e87o9DFgweR4-fill)" stroke-width="20" stroke-linejoin="round"/><path d="M23.217544,270.421943c-9.421271,8.984793-23.012768,20.877348-23.012768,20.877348q0,0-.204778,9.753034h26.553624c0,0,8.376645-11.21846,14.635296-19.302257s10.909774-17.64668,21.919247-35.16325s21.281988-40.60751,26.584799-72.456361s5.504468-152.274043,9.233096-156.317817l-6.713797,9.957097c-.556508.843563-7.542528,106.303351-16.279378,144.180056s-43.29407,89.487357-52.715341,98.47215Z" transform="translate(.224245-1.260714)" fill="url(#e87o9DFgweR5-fill)" stroke-width="0.6"/><path d="" fill="none" stroke="#3f5787" stroke-width="0.6"/></g><rect width="6.462509" height="2.629587" rx="0" ry="0" transform="translate(143.537491 521.201023)" fill="#d2dbed" stroke-width="0"/></svg>
