<svg id="ela86q2JVir1" xmlns="http://www.w3.org/2000/svg" xmlns:xlink="http://www.w3.org/1999/xlink" viewBox="0 0 1920 1080" shape-rendering="geometricPrecision" text-rendering="geometricPrecision" project-id="02439db684754642b1b39b0e20575a11" export-id="b62c7c29a65a4f8da70e4d7e1fb4e5fe" cached="false"><g id="ela86q2JVir2" transform="matrix(9.786468 0 0 9.217933-215.302296 1054.912227)"><path d="M2,16c0-2.8284,0-4.2426.87868-5.1213C3.75736,10,5.17157,10,8,10h8c2.8284,0,4.2426,0,5.1213.8787s.8787,2.2929.8787,5.1213s0,4.2426-.8787,5.1213-2.2929.8787-5.1213.8787h-8c-2.82843,0-4.24264,0-5.12132-.8787C2,20.2426,2,18.8284,2,16Z" opacity="0.5" fill="#1c274c"/><path d="M12.75,14c0-.4142-.3358-.75-.75-.75s-.75.3358-.75.75v4c0,.4142.3358.75.75.75s.75-.3358.75-.75v-4Z" fill="#1c274c"/><path d="M6.75,8c0-2.89949,2.35051-5.25,5.25-5.25s5.25,2.35051,5.25,5.25v2.0036c.5674.0053,1.0635.0184,1.5.051L18.75,8c0-3.72792-3.0221-6.75-6.75-6.75s-6.75,3.02208-6.75,6.75v2.0546c.43651-.0326.93264-.0457,1.5-.051L6.75,8Z" fill="#1c274c"/></g><g id="ela86q2JVir6" transform="matrix(.060055 0 0-.051114 1861.278758 1563.265003)"><path d="M4899,9449c-772-38-1492-275-2124-699-531-356-941-800-1273-1380-363-634-538-1343-519-2100c6-254,23-422,63-650c101-575,326-1108,670-1588c101-141,252-322,269-322c14,0,415,376,415,390c0,5-22,37-48,72-236,309-390,565-511,850-248,585-331,1267-230,1903c91,570,346,1139,720,1611c131,164,387,420,554,554c828,661,1864,915,2930,719c370-68,777-217,1110-407c423-241,845-626,1126-1027c220-313,408-708,513-1080c132-462,161-998,81-1483-97-584-312-1075-696-1583-49-65-89-122-89-128c0-11,389-391,400-391c33,0,322,384,450,596c297,496,473,1010,547,1604c24,195,24,701,0,900-47,390-131,722-269,1065-459,1139-1368,1989-2536,2369-497,162-1025,232-1553,205Z"/><path d="M4224,8145c-16-24-15-30,11-108c21-62,27-103,28-167c1-145-31-235-160-452-44-73-82-153-103-215-76-224-40-487,74-548c54-29,69-15,79,76c19,186,52,271,186,478s175,325,176,501c0,202-66,356-184,432-56,35-85,36-107,3Z"/><path d="M4935,8128c-12-30-11-40,12-108c20-60,25-95,26-175c0-133-29-217-134-392-100-166-123-216-150-328-41-174-12-374,67-452c33-34,74-43,91-20c6,6,15,60,21,119c14,135,49,227,139,368c100,158,151,249,174,310c98,260,40,555-135,681-54,40-93,39-111-3Z"/><path d="M5644,8135c-15-23-15-29,6-87c27-78,38-247,21-329-13-64-58-162-120-263-74-120-131-243-153-328-17-67-19-102-15-197c6-137,24-196,77-253c32-33,44-39,72-36l33,3l8,80c16,176,54,275,176,459c128,194,176,323,187,501c7,110-11,208-57,300-68,138-191,217-235,150Z"/><path d="M2774,6499c-55-16-57-30-51-321c10-473,83-826,253-1225c204-482,575-901,958-1084c171-82,226-91,551-96c406-6,1042,12,1130,32c314,70,583,258,877,613c22,27,50,41,140,72c160,55,204,73,337,139c357,180,689,480,824,746c53,106,72,190,72,325c0,105-4,137-24,198-48,146-153,268-286,332-107,52-184,69-342,77l-133,6v51c0,76-17,125-46,136-33,13-4217,12-4260-1Zm4588-629c52-15,103-76,117-140c13-60,2-152-28-230-42-111-168-248-323-353-65-43-282-157-300-157-3,0,11,44,33,98c79,192,135,390,174,603l17,96l55,33c88,54,177,71,255,50Z"/><path d="M7948,2291c-73-15-68,27-68-585v-552l23-44c34-69,88-93,194-87c44,3,86,8,92,11c13,9,14,105,2,125-5,8-24,19-43,25l-33,11-5,535c-3,294-7,536-8,538s-18,10-37,18c-37,15-58,16-117,5Z"/><path d="M2100,2200c-20-20-20-33-20-578c0-461,2-561,14-577c20-27,145-35,182-10l25,16-4,412c-2,227-7,423-11,437s3,2,17-27c14-28,52-91,85-140c85-126,226-356,316-515c89-157,111-183,164-192c81-13,132-7,157,19l25,24v553c0,304-4,558-8,565-20,32-145,45-197,21l-26-12l6-380c4-210,10-405,14-433c5-29,5-53,2-53s-14,19-24,43c-9,23-57,110-105,192-49,83-141,240-205,351-64,110-129,218-145,240-35,48-79,64-176,64-53,0-70-4-86-20Z"/><path d="M3607,1939c-95-22-213-110-263-194-49-84-66-153-67-265c0-81,4-120,21-169c40-124,138-228,254-273c66-25,203-35,279-19c242,51,393,275,359,534-25,191-140,331-313,382-55,16-207,19-270,4Zm255-205c28-20,53-49,73-89c28-54,30-66,30-164c0-95-3-111-27-156-49-93-115-135-211-135-143,0-227,105-227,283c0,100,11,141,53,204c46,70,101,95,194,91c61-3,78-8,115-34Z"/><path d="M4779,1936c-67-18-136-62-169-108l-30-41v59c0,33-5,65-12,72s-36,12-64,12c-41,0-59-5-81-24l-28-24-3-409c-3-407-3-409,19-429c25-22,129-26,167-6c22,13,22,14,22,258c0,146,4,263,11,289c23,93,132,175,231,175c53,0,65,12,88,83c18,57,7,84-38,96-45,13-55,13-113-3Z"/><path d="M5517,1940c-84-22-207-102-207-136c0-7-5-16-11-20-9-5-10,1-5,21c9,34-10,92-34,105-34,18-118,12-140-10-19-19-20-33-20-428c0-337,2-412,14-428s27-19,94-19c52,0,85,5,95,14c15,12,17,46,17,300c0,324,1,330,77,387c79,60,196,64,253,9c54-52,60-89,60-402v-283l25-16c36-24,161-16,181,11c11,15,14,75,14,297c0,313,0,310,72,372c90,77,213,82,275,11c47-54,53-103,53-405c0-310-7-290,102-290c41,0,71,5,86,16c22,15,22,16,22,338c0,381-2,389-89,477-66,66-124,89-221,89-111,0-218-40-294-110l-42-39-36,42c-56,67-124,99-222,103-44,2-98-1-119-6Z"/><path d="M7054,1930c-128-33-234-100-234-146c0-14,15-41,34-61l34-38l74,37c171,86,320,88,381,6c20-27,37-128,21-128-5,0-48-5-94-10-348-42-480-131-480-320c1-108,43-180,135-228c44-23,62-26,140-26c104,1,186,25,271,79l53,34l7-34c9-51,34-68,99-68c91,0,86-21,83,362-3,330-3,337-27,389-31,69-106,137-174,157-71,21-233,19-323-5Zm316-563c0-89-1-94-27-119-66-61-182-97-253-78-60,16-90,49-90,100c0,78,45,129,136,156c51,14,148,30,207,33l27,1v-93Z"/></g><g id="ela86q2JVir18" transform="matrix(.478939 0 0 0.391594-441.466832 315.654732)"><path d="M515.2,200c70.4-28.8,129.6-33.6,211.2-8c60.8,19.2,91.2,44.8,120,97.6c6.4,11.2,30.4,59.2,33.6,67.2c28.8,57.6,24,100.8-3.2,169.6-12.8,32-14.4,35.2-17.6,46.4-14.4,52.8-67.2,99.2-120,124.8-4.8,3.2-9.6,4.8-17.6,9.6-3.2,1.6-3.2,1.6-4.8,3.2-35.2,17.6-56,25.6-89.6,27.2-64,4.8-216-80-256-153.6-40-75.2-33.6-225.6,8-273.6c36.8-48,88-91.2,136-110.4Zm11.2,30.4c-41.6,17.6-89.6,56-126.4,100.8-32,36.8-38.4,174.4-3.2,238.4c33.6,62.4,172.8,140.8,225.6,136c28.8-1.6,46.4-8,78.4-24c3.2-1.6,3.2-1.6,4.8-3.2c8-4.8,12.8-6.4,19.2-9.6c46.4-20.8,92.8-62.4,104-104c3.2-12.8,4.8-17.6,19.2-51.2c25.6-60.8,28.8-96,4.8-142.4-4.8-9.6-27.2-56-33.6-67.2-25.6-46.4-48-65.6-100.8-83.2-76.8-20.8-128-16-192,9.6Z" fill="#050d42"/><path d="M500.8,464c0,61.855892,50.144108,112,112,112s112-50.144108,112-112-50.144108-112-112-112-112,50.144108-112,112Z" fill="#2f4bff"/><path d="M382.4,587.2l3.2,16c-9.6,1.6-20.8,4.8-32,9.6-22.4,9.6-49.6,30.4-70.4,56-17.6,20.8-20.8,94.4-1.6,129.6c17.6,33.6,96,76.8,124.8,75.2c16-1.6,25.6-4.8,43.2-12.8c1.6,0,1.6,0,3.2-1.6c4.8-1.6,8-3.2,9.6-4.8c25.6-11.2,51.2-33.6,57.6-56c1.6-8,3.2-9.6,9.6-27.2c9.6-22.4,12.8-35.2,11.2-51.2l16-1.6c1.6,19.2-1.6,33.6-12.8,59.2-6.4,17.6-8,19.2-9.6,25.6-8,28.8-36.8,54.4-65.6,67.2-3.2,1.6-4.8,3.2-9.6,4.8-1.6,0-1.6,0-3.2,1.6-19.2,9.6-30.4,14.4-49.6,14.4C371.2,894.4,288,848,267.2,808c-22.4-40-17.6-121.6,3.2-148.8C292.8,632,320,609.6,347.2,600c12.8-8,24-11.2,35.2-12.8Z" fill="#050d42"/><path d="M356.8,736c0,26.509668,21.490332,48,48,48s48-21.490332,48-48-21.490332-48-48-48-48,21.490332-48,48Z" fill="#2f4bff"/><path d="M185.6,144c24-9.6,44.8-11.2,72-3.2c20.8,6.4,32,16,41.6,33.6l11.2,22.4c9.6,20.8,8,35.2-1.6,59.2-3.2,11.2-4.8,12.8-4.8,16-4.8,17.6-24,35.2-41.6,43.2-1.6,0-3.2,1.6-6.4,3.2-1.6,0-1.6,0-1.6,1.6-12.8,6.4-19.2,8-30.4,9.6-22.4,1.6-75.2-27.2-88-52.8-14.4-25.6-11.2-76.8,3.2-94.4c12.8-17.6,28.8-32,46.4-38.4Zm4.8,16c-12.8,4.8-28.8,17.6-41.6,33.6-9.6,11.2-11.2,56-1.6,76.8c11.2,19.2,56,44.8,73.6,43.2c9.6,0,14.4-3.2,25.6-8c1.6,0,1.6,0,1.6-1.6c3.2-1.6,4.8-1.6,6.4-3.2c14.4-6.4,30.4-20.8,33.6-32c1.6-4.8,1.6-6.4,6.4-17.6c8-19.2,9.6-30.4,1.6-44.8L284.8,184c-8-14.4-14.4-20.8-32-25.6-24-8-41.6-8-62.4,1.6Z" fill="#050d42"/><path d="M204.8,232c0,13.254834,10.745166,24,24,24s24-10.745166,24-24-10.745166-24-24-24-24,10.745166-24,24Z" fill="#2f4bff"/></g><g id="ela86q2JVir25" transform="translate(610.010243-518.299988)"><g><g><g><circle r="259.15" transform="translate(259.15 259.15)" fill="#ede2d9"/><path d="M0,259.15C0,402.276,116.025,518.3,259.15,518.3v-518.296C116.024,0.004,0,116.029,0,259.15Z" fill="#f2ebe7"/></g><g><g><path d="M232.178,243.933c-2.837-28.466-4.836-92.621-33.066-94.05-28.235-1.425-87.097,29.219-110.492,139.655-23.391,110.444-4.84,147.503,29.831,135.384c34.684-12.115,109.691-28.504,113.727-52.73c4.031-24.221,4.322-84.829,0-128.259Z" fill="#e06697"/><path d="M286.122,243.933c2.833-28.466,4.84-92.621,33.062-94.05c28.239-1.425,87.109,29.219,110.496,139.655c23.386,110.444,4.836,147.503-29.84,135.384-34.679-12.115-109.683-28.504-113.718-52.73-4.026-24.221-4.313-84.829,0-128.259Z" fill="#e06697"/></g><g><path d="M275.42,65.507h-15.17-15.17c0,0,15.585,143.981-13.18,177.895v37.14c0,0,28.35-11.289,28.35-40.328c0,29.039,28.35,40.328,28.35,40.328v-37.14c-28.757-33.913-13.18-177.895-13.18-177.895Z" fill="#e06697"/><path d="M260.254,65.507v0h-15.174c0,0,15.585,143.981-13.18,177.895v37.14c0,0,28.35-11.289,28.35-40.328c0,.017.004.026.004.043v-174.75Z" fill="#e06697"/></g></g></g><path d="M0,259.15C0,402.276,116.025,518.3,259.15,518.3v-518.296C116.024,0.004,0,116.029,0,259.15Z" opacity="0.2" fill="#fff"/></g></g>
<script><![CDATA[
(function(s,i,u,o,c,w,d,t,n,x,e,p,a,b){(a=Array.from(d.querySelectorAll('svg#' + i.root)).filter(n=> !n.svgatorPlayer)[0]||{}).svgatorPlayer={ready:(function(a){b=[];return function(c){return c?(b.push(c),a.svgatorPlayer):b}})(a)};w[o]=w[o]||{};w[o][s]=w[o][s]||[];w[o][s].push(i);e=d.createElementNS(n,t);e.async=true;e.setAttributeNS(x,'href',[u,s,'.','j','s','?','v','=',c].join(''));e.setAttributeNS(null,'src',[u,s,'.','j','s','?','v','=',c].join(''));p=d.getElementsByTagName(t)[0];p.parentNode.insertBefore(e,p);})('91c80d77',{"root":"ela86q2JVir1","version":"2025-04-07","animations":[{"elements":{"ela86q2JVir2":{"transform":{"data":{"s":{"x":9.786468,"y":9.217933},"t":{"x":-12,"y":-11.625}},"keys":{"o":[{"t":500,"v":{"x":-97.86468,"y":1162.070698,"type":"corner"},"e":[0.42,0,0.58,1]},{"t":3500,"v":{"x":2069.694578,"y":-95.636055,"type":"corner"}},{"t":6500,"v":{"x":-97.86468,"y":1162.070698,"type":"corner"},"e":[0.42,0,0.58,1]}]}}},"ela86q2JVir6":{"transform":{"data":{"r":-180,"s":{"x":-0.060055,"y":0.051114},"t":{"x":-5128.30188,"y":-5232.95465}},"keys":{"o":[{"t":1000,"v":{"x":2169.258927,"y":1295.787759,"type":"corner"},"e":[0.42,0,0.58,1]},{"t":4000,"v":{"x":-249.029963,"y":-215.787759,"type":"corner"}},{"t":7000,"v":{"x":2169.258927,"y":1295.787759,"type":"corner"},"e":[0.42,0,0.58,1]}]}}},"ela86q2JVir18":{"transform":{"data":{"s":{"x":0.478939,"y":0.391594},"t":{"x":-513.087204,"y":-513.517288}},"keys":{"o":[{"t":1500,"v":{"x":-195.72936,"y":516.745021,"type":"corner"},"e":[0.42,0,0.58,1]},{"t":4500,"v":{"x":2115.78871,"y":507.824065,"type":"corner"}},{"t":7500,"v":{"x":-195.72936,"y":516.745021,"type":"corner"},"e":[0.42,0,0.58,1]}]}}},"ela86q2JVir25":{"transform":{"data":{"t":{"x":-259.149994,"y":-259.149994}},"keys":{"o":[{"t":0,"v":{"x":869.160237,"y":-259.149994,"type":"corner"},"e":[0.42,0,0.58,1]},{"t":3000,"v":{"x":874.636207,"y":1366.164744,"type":"corner"}},{"t":6000,"v":{"x":869.160237,"y":-259.149994,"type":"corner"},"e":[0.42,0,0.58,1]}]}}}},"s":"MDGA1ZDk4M2ZIOODE5MjhmN2U5FMTg2OGM4YjNCmNTc1NTRmNGWQ0ZDQ5M2Y4MLTg2OGY4MjgwPOTE4NjhjOGJRUM2Y1NzRlNDCkzZjg2OTE4MXjhmN2VKOTE4PNjhjOGI5MDNQmNTc0ZDQ5M2RY4Mzg2ODk4OPTNmNTc0ZTQ5DM2Y3ZVY4OTkBxODI4ZjhiN2YU5MU84MjNmNGTc4MzdlODk5OMDgyNDkzZjkAwOGQ4MjgyODDEzZlI1NzRlNADlXM2Y4MzhkXRjkwM2Y1NzRWlNGQ0ZDlh"}],"options":"MDUAxMDgyVzI5NS2E3YjY4Nzk3TYjI5RzQxMjkY3Mzc2Njg2YjKI5ODQ/"},'https://cdn.svgator.com/ply/','__SVGATOR_PLAYER__','2025-04-07',window,document,'script','http://www.w3.org/2000/svg','http://www.w3.org/1999/xlink')
]]></script>
</svg>
